<?xml version="1.0" standalone="no"?>
<!DOCTYPE svg PUBLIC "-//W3C//DTD SVG 20010904//EN"
 "http://www.w3.org/TR/2001/REC-SVG-20010904/DTD/svg10.dtd">
<svg version="1.0" xmlns="http://www.w3.org/2000/svg"
 width="700.000000pt" height="700.000000pt" viewBox="0 0 700.000000 700.000000"
 preserveAspectRatio="xMidYMid meet">
<metadata>
Created by potrace 1.14, written by Peter Selinger 2001-2017
</metadata>
<g transform="translate(0.000000,700.000000) scale(0.100000,-0.100000)"
fill="#000000" stroke="none">
<path d="M1520 6593 c0 -4 10 -24 22 -43 12 -19 29 -47 37 -62 9 -16 70 -117
137 -225 294 -481 538 -880 554 -908 9 -16 27 -46 38 -65 l21 -35 -475 -480
c-261 -264 -538 -544 -616 -622 l-141 -141 0 -566 0 -567 134 -91 c74 -50 161
-109 194 -132 33 -24 116 -81 185 -128 69 -47 194 -133 279 -192 l155 -105 57
-228 c31 -126 116 -462 189 -748 72 -286 148 -589 168 -672 l37 -153 1065 0
1066 0 34 148 c36 158 61 263 109 467 34 141 96 406 116 495 7 30 27 116 45
190 42 178 80 340 85 365 25 114 8 97 247 260 120 83 333 229 472 325 l254
174 0 556 0 556 -62 65 c-33 36 -85 92 -115 125 -30 32 -104 113 -165 179 -61
66 -142 153 -181 195 -38 41 -95 102 -125 135 -31 33 -81 87 -111 120 -30 32
-63 69 -74 80 -74 79 -163 175 -245 265 -52 57 -103 110 -112 119 -21 18 -35
-7 196 370 102 167 186 307 186 312 0 5 4 9 9 9 5 0 12 8 15 18 4 9 13 28 22
42 8 14 25 41 37 61 12 20 81 132 152 248 153 248 178 291 170 291 -3 0 -196
-137 -428 -305 -232 -167 -431 -311 -442 -319 -11 -8 -65 -47 -120 -87 -55
-40 -130 -93 -166 -118 l-65 -46 -800 1 -799 1 -150 106 c-82 58 -163 115
-180 127 -165 118 -248 176 -290 204 -27 19 -78 54 -111 78 -148 104 -489 344
-501 351 -7 4 -13 4 -13 0z"/>
</g>
</svg>
