<?xml version="1.0" encoding="UTF-8" standalone="no"?>
<!-- Generator: Gravit.io -->
<svg xmlns="http://www.w3.org/2000/svg" xmlns:xlink="http://www.w3.org/1999/xlink" style="isolation:isolate" viewBox="0 0 500 300" width="500pt" height="300pt"><defs><clipPath id="_clipPath_7GyOlHOXb6f5Ar8Zn9ypCHo92EgaxneC"><rect width="500" height="300"/></clipPath></defs><g clip-path="url(#_clipPath_7GyOlHOXb6f5Ar8Zn9ypCHo92EgaxneC)"><g><path d=" M 56.8 69.556 L 36.933 41 L 66.733 59.343 L 105.022 59.343 L 134.008 41 L 114.142 69.556 L 114.61 68.77 L 143.475 96.089 L 143.49 119.258 L 120.914 132.841 L 110.981 169.911 L 60.412 169.911 L 49.576 132.275 L 27 118.691 L 27 95.121 L 56.8 68.832 L 56.8 69.556 Z " fill="rgb(43,45,44)" vector-effect="non-scaling-stroke" stroke-width="1" stroke="rgb(43,45,44)" stroke-linejoin="miter" stroke-linecap="butt" stroke-miterlimit="4"/><g><g><path d=" M 90.121 91.434 L 93.282 102.766 L 112.697 83.276 L 90.121 91.434 Z " fill="rgb(255,255,255)" vector-effect="non-scaling-stroke" stroke-width="1" stroke="rgb(255,255,255)" stroke-linejoin="miter" stroke-linecap="butt" stroke-miterlimit="4"/></g><g><path d=" M 81.994 91.434 L 78.834 102.766 L 59.419 83.276 L 81.994 91.434 Z " fill="rgb(255,255,255)" vector-effect="non-scaling-stroke" stroke-width="1" stroke="rgb(255,255,255)" stroke-linejoin="miter" stroke-linecap="butt" stroke-miterlimit="4"/></g></g></g><path d=" M 182.469 257.433 L 135.963 257.433 L 135.963 244.378 L 147.917 242.14 L 147.917 164.182 L 135.963 161.944 L 135.963 148.814 L 189.179 148.814 L 189.179 148.814 Q 202.136 148.814 211.391 152.693 L 211.391 152.693 L 211.391 152.693 Q 220.646 156.572 225.621 163.809 L 225.621 163.809 L 225.621 163.809 Q 230.595 171.045 230.595 181.191 L 230.595 181.191 L 230.595 181.191 Q 230.595 190.74 225.659 198.275 L 225.659 198.275 L 225.659 198.275 Q 220.723 205.809 211.931 210.136 L 211.931 210.136 L 211.931 210.136 Q 203.139 214.463 191.647 214.538 L 191.647 214.538 L 170.438 214.538 L 170.438 242.14 L 182.469 244.378 L 182.469 257.433 Z  M 235.531 257.433 L 208.229 257.433 L 189.333 210.509 L 209.617 205.66 L 225.968 242.215 L 235.531 244.378 L 235.531 257.433 Z  M 170.438 165.599 L 170.438 197.752 L 188.793 197.752 L 188.793 197.752 Q 198.511 197.752 203.332 193.761 L 203.332 193.761 L 203.332 193.761 Q 208.152 189.77 208.152 182.161 L 208.152 182.161 L 208.152 182.161 Q 208.152 174.626 203.37 170.113 L 203.37 170.113 L 203.37 170.113 Q 198.588 165.599 189.179 165.599 L 189.179 165.599 L 170.438 165.599 Z  M 273.014 259 L 273.014 259 L 273.014 259 Q 260.597 259 253.27 252.547 L 253.27 252.547 L 253.27 252.547 Q 245.943 246.094 245.943 234.978 L 245.943 234.978 L 245.943 234.978 Q 245.943 227.369 250.224 221.625 L 250.224 221.625 L 250.224 221.625 Q 254.504 215.88 262.872 212.598 L 262.872 212.598 L 262.872 212.598 Q 271.24 209.316 283.503 209.316 L 283.503 209.316 L 294.532 209.316 L 294.532 203.347 L 294.532 203.347 Q 294.532 197.529 291.023 193.91 L 291.023 193.91 L 291.023 193.91 Q 287.514 190.292 280.495 190.292 L 280.495 190.292 L 280.495 190.292 Q 276.87 190.292 273.978 191.15 L 273.978 191.15 L 273.978 191.15 Q 271.086 192.008 268.772 193.575 L 268.772 193.575 L 266.998 204.243 L 250.802 204.243 L 250.494 183.28 L 250.494 183.28 Q 257.049 179.699 264.685 177.461 L 264.685 177.461 L 264.685 177.461 Q 272.32 175.223 281.729 175.223 L 281.729 175.223 L 281.729 175.223 Q 298.08 175.223 307.566 182.571 L 307.566 182.571 L 307.566 182.571 Q 317.053 189.919 317.053 203.571 L 317.053 203.571 L 317.053 236.843 L 317.053 236.843 Q 317.053 238.485 317.091 240.089 L 317.091 240.089 L 317.091 240.089 Q 317.13 241.692 317.361 243.185 L 317.361 243.185 L 326.076 244.378 L 326.076 257.433 L 298.157 257.433 L 298.157 257.433 Q 297.309 255.345 296.46 252.957 L 296.46 252.957 L 296.46 252.957 Q 295.612 250.57 295.226 248.183 L 295.226 248.183 L 295.226 248.183 Q 291.216 253.106 285.778 256.053 L 285.778 256.053 L 285.778 256.053 Q 280.341 259 273.014 259 Z  M 279.03 242.886 L 279.03 242.886 L 279.03 242.886 Q 283.735 242.886 287.976 240.835 L 287.976 240.835 L 287.976 240.835 Q 292.218 238.783 294.532 235.426 L 294.532 235.426 L 294.532 222.669 L 283.426 222.669 L 283.426 222.669 Q 276.022 222.669 272.204 225.952 L 272.204 225.952 L 272.204 225.952 Q 268.387 229.234 268.387 233.859 L 268.387 233.859 L 268.387 233.859 Q 268.387 238.186 271.202 240.536 L 271.202 240.536 L 271.202 240.536 Q 274.017 242.886 279.03 242.886 Z  M 367.03 259 L 367.03 259 L 367.03 259 Q 353.841 259 346.322 250.906 L 346.322 250.906 L 346.322 250.906 Q 338.802 242.812 338.802 225.728 L 338.802 225.728 L 338.802 192.083 L 329.624 189.845 L 329.624 176.715 L 338.802 176.715 L 361.323 176.715 L 361.323 225.877 L 361.323 225.877 Q 361.323 234.531 364.446 238.298 L 364.446 238.298 L 364.446 238.298 Q 367.57 242.066 373.894 242.066 L 373.894 242.066 L 373.894 242.066 Q 378.907 242.066 382.763 240.163 L 382.763 240.163 L 382.763 240.163 Q 386.62 238.261 389.088 234.755 L 389.088 234.755 L 389.088 192.083 L 379.139 189.845 L 379.139 176.715 L 389.088 176.715 L 411.608 176.715 L 411.608 242.14 L 421.635 244.378 L 421.635 257.433 L 391.864 257.433 L 390.322 247.213 L 390.322 247.213 Q 386.388 252.883 380.45 255.941 L 380.45 255.941 L 380.45 255.941 Q 374.511 259 367.03 259 Z  M 362.479 161.421 L 361.862 161.421 L 377.21 141.055 L 401.042 141.055 L 401.196 141.503 L 379.91 161.421 L 362.479 161.421 Z  M 473 257.433 L 428.73 257.433 L 428.73 244.378 L 439.605 242.14 L 439.605 156.423 L 427.573 154.185 L 427.573 141.055 L 462.125 141.055 L 462.125 242.14 L 473 244.378 L 473 257.433 Z " fill="rgb(43,45,44)"/></g></svg>